<svg width="128" height="128" viewBox="0 0 128 128" fill="none" xmlns="http://www.w3.org/2000/svg">
  <rect width="128" height="128" rx="28" fill="#1E1E1E" />
  <rect x="18" y="18" width="92" height="92" rx="20" fill="#F2C94C" stroke="#3C3C3C"
    stroke-width="2" />

  <!-- JSON braces -->
  <path
    d="M48 32C40.8 32 37 36.1 37 43.2V49.2C37 53 35 55 31 55H28V64H31C35 64 37 66 37 69.8V75.8C37 82.9 40.8 87 48 87H52V78.5H49.3C46.9 78.5 46 77.4 46 74.8V68.8C46 63.7 43.8 60.8 39.6 59.5C43.8 58.2 46 55.3 46 50.2V44.2C46 41.6 46.9 40.5 49.3 40.5H52V32H48Z"
    fill="#252526" transform="translate(0, +4)" />
  <path
    d="M80 32C87.2 32 91 36.1 91 43.2V49.2C91 53 93 55 97 55H100V64H97C93 64 91 66 91 69.8V75.8C91 82.9 87.2 87 80 87H76V78.5H78.7C81.1 78.5 82 77.4 82 74.8V68.8C82 63.7 84.2 60.8 88.4 59.5C84.2 58.2 82 55.3 82 50.2V44.2C82 41.6 81.1 40.5 78.7 40.5H76V32H80Z"
    fill="#252526" transform="translate(0, +4)" />

  <!-- autocomplete bolt -->
  <path d="M69.5 37L51 66H63L57.5 91L78 59H65.5L69.5 37Z" fill="#4FC3F7" />

  <!-- <path
    d="M69.5 37L51 66H63L57.5 91L78 59H65.5L69.5 37Z"
    fill="#4FC3F7"
    transform="translate(-6, 0)"
  /> -->
</svg>