<svg width="128" height="128" xmlns="http://www.w3.org/2000/svg" fill="none">

 <!-- JSON braces -->
 <!-- autocomplete bolt -->
 <!-- <path
    d="M69.5 37L51 66H63L57.5 91L78 59H65.5L69.5 37Z"
    fill="#4FC3F7"
    transform="translate(-6, 0)"
  /> -->
 <g>
  <title>Layer 1</title>
  <rect stroke="#3C3C3C" id="svg_2" stroke-width="5" fill="#F2C94C" rx="20" height="120.68016" width="120.68016" y="3.53302" x="3.53302"/>
  <path stroke="null" id="svg_5" fill="#4FC3F7" d="m70.4318,28.45609l-24.26721,38.04049l15.74089,0l-7.21458,32.79352l26.89069,-41.97571l-16.39676,0l5.24696,-28.8583z"/>
  <g fill="#252526" stroke="null" id="svg_6">
   <path stroke="null" id="svg_3" fill="#252526" d="m42.88524,27.80022c-9.44453,0 -14.42915,5.37814 -14.42915,14.6915l0,7.87045c0,4.98461 -2.62348,7.60809 -7.87045,7.60809l-3.93522,0l0,11.80567l3.93522,0c5.24697,0 7.87045,2.62348 7.87045,7.6081l0,7.87045c0,9.31335 4.98462,14.6915 14.42915,14.6915l5.24697,0l0,-11.1498l-3.54171,0c-3.14817,0 -4.32874,-1.44291 -4.32874,-4.85344l0,-7.87044c0,-6.6899 -2.88583,-10.49394 -8.39514,-12.1992c5.50931,-1.70526 8.39514,-5.50931 8.39514,-12.19919l0,-7.87045c0,-3.41053 1.18057,-4.85344 4.32874,-4.85344l3.54171,0l0,-11.1498l-5.24697,0z"/>
   <path stroke="null" id="svg_4" fill="#252526" d="m84.86095,27.80022c9.44453,0 14.42915,5.37814 14.42915,14.6915l0,7.87045c0,4.98461 2.62348,7.60809 7.87044,7.60809l3.93523,0l0,11.80567l-3.93523,0c-5.24696,0 -7.87044,2.62348 -7.87044,7.6081l0,7.87045c0,9.31335 -4.98462,14.6915 -14.42915,14.6915l-5.24697,0l0,-11.1498l3.54169,0c3.14819,0 4.32876,-1.44291 4.32876,-4.85344l0,-7.87044c0,-6.6899 2.88582,-10.49394 8.39513,-12.1992c-5.50932,-1.70526 -8.39513,-5.50931 -8.39513,-12.19919l0,-7.87045c0,-3.41053 -1.18057,-4.85344 -4.32876,-4.85344l-3.54169,0l0,-11.1498l5.24697,0z"/>
  </g>
 </g>
</svg>